Coordinates
version=1
nRows=13
nColumns=36
inDegrees=yes

Units are S.I. units (second, meters, Newtons, ...)
If the header above contains a line with 'inDegrees', this indicates whether rotational values are in degrees (yes) or radians (no).

endheader
time	pelvis_tilt	pelvis_list	pelvis_rotation	pelvis_tx	pelvis_ty	pelvis_tz	hip_flexion_r	hip_adduction_r	hip_rotation_r	knee_angle_r	knee_angle_r_beta	ankle_angle_r	subtalar_angle_r	mtp_angle_r	hip_flexion_l	hip_adduction_l	hip_rotation_l	knee_angle_l	knee_angle_l_beta	ankle_angle_l	subtalar_angle_l	mtp_angle_l	lumbar_extension	lumbar_bending	lumbar_rotation	arm_flex_r	arm_add_r	arm_rot_r	elbow_flex_r	pro_sup_r	arm_flex_l	arm_add_l	arm_rot_l	elbow_flex_l	pro_sup_l
      3.10833330	     -0.30521480	     -0.32834743	      8.46900433	      0.34771014	      0.97575813	     -0.03233272	     -2.03233487	     -3.08714587	     -3.37714681	      8.54548975	      0.14914693	      8.65438023	    -13.75227577	     -7.49999987	     -3.78732836	     -4.77266583	      6.56930762	      2.88895260	      0.05042173	      6.44564312	     -4.79626155	     -7.49999987	     -0.34666345	     -0.18777173	      1.74916385	    -15.38109002	     -9.70229603	    -10.22897928	     20.80763864	     76.09499340	    -15.41017638	    -10.11685157	    -27.69081418	     21.15828363	     86.75619461
      3.11250000	     -0.28891540	     -0.34041630	      8.44065600	      0.34873321	      0.97583940	     -0.02985235	     -2.14465676	     -2.99435600	     -3.22493817	      8.22031957	      0.14347164	      8.38247420	    -13.77959819	     -7.49999987	     -3.90794080	     -4.85286837	      6.36894419	      2.69747982	      0.04707990	      6.16895244	     -4.66428571	     -7.49999987	     -0.35854163	     -0.24686755	      1.90990398	    -15.64118643	     -9.65624630	    -10.58555029	     20.47329045	     75.25112877	    -15.82164513	    -10.40488817	    -28.19624911	     20.52639131	     85.73129015
      3.11666670	     -0.43107636	     -0.35795104	      8.49942168	      0.34815983	      0.97836582	     -0.02942102	     -2.02992214	     -2.92635204	     -3.17664448	      8.07589342	      0.14095093	      8.28641370	    -13.72154840	     -7.49999987	     -3.74386949	     -4.89712281	      6.25505064	      2.67331101	      0.04665808	      6.17917720	     -4.22035115	     -7.49999987	     -0.15260515	     -0.30300415	      2.04647418	    -16.02244384	     -9.48108001	    -10.98317467	     20.30403151	     72.54765025	    -16.31650294	    -10.56473700	    -28.72032329	     19.90610531	     82.07696990
      3.12083330	     -0.45473033	     -0.33781691	      8.59176632	      0.34634003	      0.97675624	     -0.03063215	     -1.98477280	     -2.90598811	     -3.18231858	      7.98058687	      0.13928752	      8.32617731	    -13.66854023	     -7.49999987	     -3.64066653	     -4.87570078	      6.24629492	      2.67445256	      0.04667800	      6.18431742	     -4.04410468	     -7.49999987	     -0.15970926	     -0.39134717	      2.16817693	    -16.32396520	     -9.43941490	    -11.37781017	     20.18857061	     72.15917166	    -16.76146612	    -10.76643055	    -29.08757869	     19.16462921	     81.67330946
      3.12500000	     -0.50692034	     -0.30424099	      8.68339383	      0.34657479	      0.97503246	     -0.03257397	     -1.89809545	     -2.95345596	     -3.28888189	      8.05343656	      0.14055898	      8.27200508	    -13.77245110	     -7.49999987	     -3.52825053	     -4.81819744	      6.25168650	      2.68335649	      0.04683341	      6.20048133	     -3.81704993	     -7.49999987	     -0.06181320	     -0.43066823	      2.38648899	    -16.78808640	     -9.40460055	    -11.69736082	     20.15180128	     71.42696188	    -17.51353983	    -10.72270523	    -29.44466943	     18.69663356	     80.71058178
      3.12916670	     -0.59016240	     -0.23106944	      8.75142587	      0.34585259	      0.97607945	     -0.03306792	     -1.73235005	     -3.09923926	     -3.41510524	      8.17574522	      0.14269367	      8.26282982	    -13.89030119	     -7.49999987	     -3.35086180	     -4.66564980	      6.29033902	      2.73590437	      0.04775054	      6.32939257	     -3.67373223	     -7.49999987	      0.08720294	     -0.44382257	      2.70476479	    -17.19572770	     -9.32451076	    -13.69875680	     20.18560919	     72.68215335	    -18.03989226	    -10.51577563	    -31.59674757	     18.03355501	     84.55878146
      3.13333330	     -0.66266080	     -0.15735681	      8.81537287	      0.34649997	      0.97944184	     -0.03373548	     -1.62228830	     -3.23960461	     -3.40889375	      8.22415802	      0.14353864	      8.16249295	    -14.04688096	     -7.49999987	     -3.28185694	     -4.53539190	      6.34555887	      2.66297623	      0.04647770	      6.27586972	     -3.61009833	     -7.49999987	      0.26038724	     -0.52273219	      2.84125788	    -17.49348017	     -9.29868576	    -13.59610556	     19.89771411	     70.94531291	    -18.72433011	    -10.47994077	    -31.51537860	     17.09593781	     81.55229794
      3.13750000	     -0.63676520	     -0.07922733	      8.93161306	      0.34604241	      0.97935611	     -0.03368350	     -1.69023305	     -3.37314796	     -3.63218433	      8.17797698	      0.14273262	      8.04274621	    -13.92229442	     -7.49999987	     -3.32445849	     -4.41933685	      6.39240841	      2.56968984	      0.04484955	      6.18965129	     -3.57436447	     -7.49999987	      0.23316340	     -0.57205668	      2.97826712	    -17.67577071	     -9.45395164	    -13.72218662	     19.78817997	     70.43195092	    -19.44963117	    -10.41361054	    -31.58425575	     16.40141081	     80.75108928
      3.14166670	     -0.65931670	     -0.03171570	      9.03109985	      0.34514590	      0.98095475	     -0.03324184	     -1.66824178	     -3.46820633	     -3.80620149	      8.11364029	      0.14160974	      7.89482330	    -13.90250445	     -7.49999987	     -3.33236101	     -4.35340517	      6.48866564	      2.41749840	      0.04219331	      6.06139420	     -3.56597039	     -7.49999987	      0.28895511	     -0.66251148	      3.12655367	    -17.97540122	     -9.41550482	    -13.78457888	     19.56611776	     70.02578913	    -20.13937788	    -10.41710499	    -31.54834816	     15.47526626	     80.11216628
      3.14583330	     -0.61627336	      0.00781690	      9.21593488	      0.34690421	      0.98438015	     -0.03256390	     -1.84877386	     -3.48576914	     -3.93388611	      7.91663534	      0.13817135	      7.77827019	    -13.78767948	     -7.49999987	     -3.44920755	     -4.35575027	      6.56648458	      2.22114181	      0.03876624	      5.84501545	     -3.57760294	     -7.49999987	      0.26040636	     -0.77023111	      3.21669172	    -18.13410212	     -9.37600346	    -13.83508439	     19.23966876	     68.33623018	    -20.69311555	    -10.47828492	    -31.28682379	     14.15826903	     77.20907381
      3.15000000	     -1.16096122	     -0.02627799	      9.34916492	      0.34546945	      0.97975632	     -0.03162976	     -1.27844874	     -3.51460909	     -4.01080737	      7.85654827	      0.13712264	      7.62460600	    -13.82604527	     -7.49999987	     -2.75566756	     -4.33962145	      6.42073896	      2.32252043	      0.04053563	      5.81188136	     -3.36229583	     -7.49999987	      0.16431570	     -1.12963153	      4.27961766	    -15.49579871	    -13.21296179	    -23.87834200	     24.36981804	     66.66967427	    -19.76857535	    -11.13829403	    -33.42438317	     12.99351082	     76.36656533
      3.15416670	     -1.00906624	      0.02415256	      9.49697565	      0.34505735	      0.97932940	     -0.03069925	     -1.52286111	     -3.46833453	     -3.91062991	      7.65891179	      0.13367323	      7.46173798	    -14.03534823	     -7.49999987	     -2.89820444	     -4.38373201	      6.12338782	      2.30137942	      0.04016665	      5.97419584	     -2.85857561	     -7.49999987	      0.11558632	     -1.44648167	      4.37115706	    -15.88676232	    -12.34498392	    -24.40259094	     25.32717563	     65.94761750	    -20.55166851	    -11.49277029	    -33.47356377	     11.70346547	     74.49837037
      3.15833330	     -0.72191827	      0.08304246	      9.67308392	      0.34564118	      0.97835027	     -0.03283008	     -1.97704448	     -3.44656461	     -4.04949414	      7.43713936	      0.12980257	      7.39928688	    -13.99016453	     -7.49999987	     -3.23567169	     -4.40980680	      6.16986961	      2.20365427	      0.03846102	      5.89738387	     -2.93512640	     -7.49999987	      0.13643516	     -1.47112886	      4.30905034	    -17.07475584	    -11.31536347	    -24.76910728	     25.68256798	     65.08456129	    -21.43677598	    -11.46707851	    -33.87685086	     10.21683731	     72.55134896
